<svg preserveAspectRatio="none" width="100%" height="100%" overflow="visible" style="display: block;" viewBox="0 0 124 124" fill="none" xmlns="http://www.w3.org/2000/svg">
<path id="Rectangle 1" d="M124 62C124 40.298 124 29.4469 119.777 21.1579C116.061 13.8666 110.133 7.93859 102.842 4.2235C94.5531 0 83.702 0 62 0C40.298 0 29.4469 0 21.1579 4.2235C13.8666 7.93859 7.93859 13.8666 4.2235 21.1579C0 29.4469 0 40.298 0 62V108.5C0 115.807 0 119.46 2.26992 121.73C4.53985 124 8.19323 124 15.5 124H62C83.702 124 94.5531 124 102.842 119.777C110.133 116.061 116.061 110.133 119.777 102.842C124 94.5531 124 83.702 124 62Z" fill="var(--fill-0, #FDBD28)"/>
</svg>
