<svg preserveAspectRatio="none" width="100%" height="100%" overflow="visible" style="display: block;" viewBox="0 0 278 344.811" fill="none" xmlns="http://www.w3.org/2000/svg">
<g id="Group 110">
<path id="Vector" d="M144.033 125.016C141.467 119.335 159.027 98.8269 152.476 91.6688C145.924 84.5107 126.473 101.156 120.327 100.247C114.181 99.3381 109.048 70.1378 94.7968 75.7051C86.2193 79.0569 89.056 106.439 85.8141 114.336C82.5722 122.233 48.0596 130.356 50.0858 141.15C52.1795 152.853 81.289 144.389 86.8947 149.501C92.5005 154.614 83.5178 193.757 95.6749 191.939C109.183 189.893 119.516 157 126 154.614C132.484 152.228 153.016 162.113 160.58 157.909C170.576 152.058 146.532 130.527 144.033 125.016Z" fill="var(--fill-0, #EFBB00)"/>
<path id="Vector_2" d="M264.417 297.822C249.661 305.81 239.732 306.863 226.872 311.255C220.257 313.497 200.752 313.241 203.238 324.963C203.814 326.785 205.113 328.317 206.853 329.227C208.594 330.137 210.637 330.352 212.542 329.826C235.046 323.314 248.6 322.844 271.747 310.336C273.337 309.337 274.472 307.794 274.923 306.02C275.373 304.246 275.105 302.373 274.173 300.782C273.241 299.191 271.715 298 269.903 297.45C268.092 296.9 266.131 297.033 264.417 297.822Z" fill="var(--fill-0, #007AF5)"/>
<path id="Vector_3" d="M211.606 210.669C205.096 215.955 170.633 225.954 180.726 239.586C181.371 240.288 182.156 240.858 183.035 241.262C183.914 241.665 184.869 241.894 185.842 241.935C186.816 241.975 187.788 241.827 188.7 241.498C189.612 241.169 190.446 240.667 191.152 240.021C198.549 233.581 207.074 228.452 216.332 224.87C228.253 219.402 222.407 201.821 211.606 210.669Z" fill="var(--fill-0, #007AF5)"/>
<path id="Vector_4" d="M7.36834 71.2774C8.40845 71.4535 9.47542 71.4175 10.5001 71.1718C11.5249 70.9262 12.4845 70.4763 13.3168 69.8513C14.1491 69.2264 14.8357 68.4403 15.3318 67.544C15.828 66.6477 16.1227 65.6612 16.197 64.6484C17.6894 55.0492 20.9867 45.7912 25.9278 37.3272C28.5055 28.9636 45.9694 6.35076 30.6321 0.155467C29.5896 -0.0501466 28.5146 -0.0518268 27.4714 0.150534C26.4282 0.352894 25.4381 0.755149 24.56 1.33331C23.682 1.91147 22.934 2.65369 22.3608 3.51572C21.7876 4.37775 21.4008 5.34193 21.2235 6.35076C21.0302 21.839 -15.1221 65.4538 7.36834 71.2774Z" fill="var(--fill-0, #007AF5)"/>
</g>
</svg>
