<svg preserveAspectRatio="none" width="100%" height="100%" overflow="visible" style="display: block;" viewBox="0 0 256.521 383.02" fill="none" xmlns="http://www.w3.org/2000/svg">
<g id="Group 114">
<path id="Vector" d="M171.961 197.738C172.565 196.77 173.002 195.636 173.242 194.416C173.482 193.196 173.518 191.92 173.348 190.679C173.178 189.437 172.806 188.262 172.259 187.236C171.712 186.21 171.003 185.359 170.182 184.743C150.815 168.707 132.683 150.126 116.054 129.273C114.77 127.888 113.142 127.209 111.499 127.375C109.857 127.541 108.322 128.539 107.208 130.168C106.093 131.796 105.48 133.932 105.495 136.143C105.51 138.355 106.15 140.476 107.286 142.078C110.831 144.136 161.731 212.843 171.961 197.738Z" fill="var(--fill-0, #007AF5)"/>
<path id="Vector_2" d="M241.328 75.9843C241.977 75.2302 242.5 74.3015 242.865 73.2585C243.229 72.2155 243.426 71.0814 243.443 69.9297C243.459 68.778 243.296 67.6344 242.963 66.5729C242.629 65.5115 242.134 64.5559 241.508 63.7681C235.979 55.6339 231.599 46.2166 228.582 35.9766C224.419 27.8084 218.545 -3.15678 206.621 5.38748C205.952 6.12253 205.4 7.03095 204.998 8.05862C204.596 9.08628 204.352 10.2121 204.281 11.369C204.21 12.5259 204.313 13.6901 204.585 14.7923C204.856 15.8944 205.29 16.9119 205.86 17.7841C215.916 29.0344 225.982 90.8479 241.328 75.9843Z" fill="var(--fill-0, #007AF5)"/>
<path id="Vector_3" d="M58.7392 354.34C59.5267 353.082 60.0335 351.552 60.2011 349.924C60.3687 348.297 60.1902 346.639 59.6863 345.142C59.1824 343.645 58.3735 342.369 57.353 341.462C56.3325 340.556 55.1418 340.055 53.9184 340.017C37.6036 340.325 27.2664 335.109 11.0021 328.315C9.36556 327.634 7.59443 327.853 6.07834 328.925C4.56225 329.997 3.42539 331.833 2.91785 334.03C2.4103 336.227 2.57366 338.605 3.37196 340.64C4.17027 342.676 5.53815 344.202 7.17467 344.883C24.2871 352.06 35.2693 357.436 53.6767 357.239C54.6277 357.288 55.5749 357.053 56.4502 356.552C57.3256 356.051 58.1073 355.295 58.7392 354.34Z" fill="var(--fill-0, #007AF5)"/>
<path id="Vector_4" d="M107.128 241.738C103.795 233.556 116.67 203.649 106.475 199.448C96.279 195.247 78.6326 221.947 72.293 222.887C65.9534 223.827 49.418 203.926 42.1634 209.896C34.9088 215.866 44.5816 244.723 41.9674 250.251C39.3531 255.779 16.4128 273.967 23.2753 281.264C30.1378 288.561 43.9281 277.228 50.4638 279.66C59.7444 282.922 50.0063 312.11 63.5351 312C77.064 311.889 80.0705 284.359 86.4101 280.434C92.7497 276.509 133.859 280.434 138.173 272.695C144.708 261.307 110.461 249.919 107.128 241.738Z" fill="var(--fill-0, #EFBB00)"/>
</g>
</svg>
