<svg width="37" height="72" viewBox="0 0 37 72" fill="none" xmlns="http://www.w3.org/2000/svg">
<path d="M7.36834 71.2774C8.40845 71.4535 9.47542 71.4175 10.5001 71.1718C11.5249 70.9262 12.4845 70.4763 13.3168 69.8513C14.1491 69.2264 14.8357 68.4403 15.3318 67.544C15.828 66.6477 16.1227 65.6612 16.197 64.6484C17.6894 55.0492 20.9867 45.7912 25.9278 37.3272C28.5055 28.9636 45.9694 6.35076 30.6321 0.155467C29.5896 -0.0501466 28.5146 -0.0518268 27.4714 0.150534C26.4282 0.352894 25.4381 0.755149 24.56 1.33331C23.682 1.91147 22.934 2.65369 22.3608 3.51572C21.7876 4.37775 21.4008 5.34193 21.2235 6.35076C21.0302 21.839 -15.1221 65.4538 7.36834 71.2774Z" fill="#007AF5"/>
</svg>
