<svg width="113" height="117" viewBox="0 0 113 117" fill="none" xmlns="http://www.w3.org/2000/svg">
<path d="M94.0331 50.0163C91.4666 44.3353 109.027 23.8269 102.476 16.6688C95.9242 9.51071 76.4728 26.1561 70.3267 25.2471C64.1806 24.3381 59.0477 -4.86225 44.7968 0.705142C36.2193 4.05694 39.056 31.4394 35.8141 39.336C32.5722 47.2326 -1.94041 55.3565 0.0857725 66.1504C2.17949 77.8533 31.289 69.3886 36.8947 74.5015C42.5005 79.6144 33.5178 118.757 45.6749 116.939C59.1828 114.893 69.5163 82.0004 76.0001 79.6144C82.4839 77.2283 103.016 87.1133 110.58 82.9094C120.576 77.0579 96.5321 55.5269 94.0331 50.0163Z" fill="#EFBB00"/>
</svg>
