<svg width="68" height="73" viewBox="0 0 68 73" fill="none" xmlns="http://www.w3.org/2000/svg">
<path d="M66.4655 70.3871C67.0694 69.42 67.5069 68.2858 67.7467 67.0656C67.9866 65.8454 68.0228 64.5692 67.8529 63.328C67.683 62.0868 67.3112 60.9113 66.7639 59.8852C66.2166 58.8592 65.5074 58.008 64.6868 57.3924C45.3196 41.3564 27.1878 22.7752 10.5592 1.92274C9.27521 0.537105 7.64692 -0.141445 6.0042 0.024614C4.36149 0.190672 2.82723 1.18889 1.71231 2.81703C0.597383 4.44516 -0.0148316 6.58146 -0.000252988 8.79299C0.0143255 11.0045 0.654611 13.1259 1.79082 14.7273C5.33552 16.7852 56.2362 85.4922 66.4655 70.3871Z" fill="#007AF5"/>
</svg>
