<svg width="117" height="113" viewBox="0 0 117 113" fill="none" xmlns="http://www.w3.org/2000/svg">
<path d="M85.1285 42.7379C81.7953 34.5563 94.6706 4.64944 84.4749 0.448108C74.2792 -3.75323 56.6329 22.9474 50.2933 23.8871C43.9536 24.8269 27.4183 4.92586 20.1637 10.8962C12.9091 16.8665 22.5819 45.723 19.9676 51.2511C17.3534 56.7792 -5.58693 74.9666 1.27555 82.2636C8.13803 89.5607 21.9283 78.2281 28.464 80.6605C37.7447 83.922 28.0065 113.11 41.5354 113C55.0643 112.889 58.0707 85.3593 64.4103 81.4344C70.75 77.5095 111.859 81.4344 116.173 73.6951C122.709 62.3073 88.4617 50.9194 85.1285 42.7379Z" fill="#EFBB00"/>
</svg>
