<svg width="40" height="75" viewBox="0 0 40 75" fill="none" xmlns="http://www.w3.org/2000/svg">
<path d="M37.0695 72.0735C37.7181 71.3194 38.2415 70.3908 38.6057 69.3478C38.9699 68.3047 39.1668 67.1707 39.1837 66.019C39.2005 64.8673 39.037 63.7236 38.7037 62.6622C38.3704 61.6007 37.8746 60.6452 37.2487 59.8573C31.7197 51.7231 27.3398 42.3058 24.323 32.0658C20.1606 23.8977 14.2861 -7.06754 2.36226 1.47673C1.69305 2.21177 1.14096 3.1202 0.738894 4.14786C0.336829 5.17552 0.0930329 6.30136 0.0220385 7.45824C-0.0489548 8.61511 0.0542941 9.77936 0.325659 10.8815C0.597024 11.9837 1.03095 13.0011 1.60152 13.8733C11.6575 25.1236 21.7228 86.9371 37.0695 72.0735Z" fill="#007AF5"/>
</svg>
