<svg width="58" height="30" viewBox="0 0 58 30" fill="none" xmlns="http://www.w3.org/2000/svg">
<path d="M56.1122 26.414C56.8998 25.1565 57.4066 23.6258 57.5741 21.9983C57.7417 20.3709 57.5633 18.713 57.0593 17.2158C56.5554 15.7186 55.7466 14.4432 54.726 13.5365C53.7055 12.6298 52.5149 12.1288 51.2914 12.0913C34.9766 12.399 24.6394 7.18339 8.37513 0.389167C6.73861 -0.292222 4.96748 -0.0728948 3.45139 0.998849C1.9353 2.07059 0.798441 3.90698 0.290895 6.10404C-0.216651 8.30111 -0.0532973 10.6788 0.745011 12.7142C1.54332 14.7496 2.91119 16.2759 4.54772 16.9572C21.6601 24.1338 32.6424 29.5101 51.0498 29.3126C52.0007 29.3616 52.9479 29.1271 53.8233 28.6259C54.6986 28.1247 55.4803 27.3693 56.1122 26.414Z" fill="#007AF5"/>
</svg>
