<svg preserveAspectRatio="none" width="100%" height="100%" overflow="visible" style="display: block;" viewBox="0 0 1041.61 527.966" fill="none" xmlns="http://www.w3.org/2000/svg">
<g id="Group 3">
<path id="Vector 289" d="M8.15084 518.418L179.295 212.905L349.662 11.4569L520.418 59.6708L691.562 465.908L862.706 385.711L1033.07 401.941" stroke="var(--stroke-0, #FC4982)" stroke-opacity="0.72" stroke-width="9.5473"/>
<g id="Ellipse 213">
<ellipse cx="8.538" cy="517.464" rx="8.53779" ry="10.502" fill="var(--fill-0, #FC4982)" fill-opacity="0.72"/>
<path d="M8.5383 507.917C12.5509 507.917 16.1213 511.997 16.1213 517.464C16.1213 522.931 12.5509 527.011 8.5383 527.011C4.52553 527.011 0.955289 522.931 0.955289 517.464C0.955321 511.997 4.52555 507.917 8.5383 507.917Z" stroke="var(--stroke-0, #FC4982)" stroke-opacity="0.72" stroke-width="1.90946"/>
</g>
<g id="Ellipse 214">
<ellipse cx="179.293" cy="211.95" rx="8.53779" ry="10.502" fill="var(--fill-0, #FC4982)" fill-opacity="0.72"/>
<path d="M179.293 202.403C183.306 202.403 186.876 206.483 186.876 211.95C186.876 217.417 183.306 221.498 179.293 221.498C175.28 221.498 171.71 217.417 171.71 211.95C171.71 206.483 175.28 202.403 179.293 202.403Z" stroke="var(--stroke-0, #FC4982)" stroke-opacity="0.72" stroke-width="1.90946"/>
</g>
<g id="Ellipse 209">
<ellipse cx="350.05" cy="10.5022" rx="8.53779" ry="10.502" fill="var(--fill-0, #FC4982)" fill-opacity="0.72"/>
<path d="M350.05 0.955252C354.063 0.955454 357.633 5.03523 357.633 10.5021C357.633 15.9691 354.063 20.0498 350.05 20.05C346.037 20.05 342.467 15.9692 342.467 10.5021C342.467 5.03509 346.037 0.955252 350.05 0.955252Z" stroke="var(--stroke-0, #FC4982)" stroke-opacity="0.72" stroke-width="1.90946"/>
</g>
<g id="Ellipse 210">
<ellipse cx="520.805" cy="59.1934" rx="8.53779" ry="10.502" fill="var(--fill-0, #FC4982)" fill-opacity="0.72"/>
<path d="M520.805 49.6465C524.818 49.6467 528.388 53.7264 528.388 59.1933C528.388 64.6603 524.818 68.741 520.805 68.7412C516.792 68.7412 513.222 64.6604 513.222 59.1933C513.222 53.7263 516.792 49.6465 520.805 49.6465Z" stroke="var(--stroke-0, #FC4982)" stroke-opacity="0.72" stroke-width="1.90946"/>
</g>
<g id="Ellipse 211">
<ellipse cx="691.561" cy="464.954" rx="8.53776" ry="10.502" fill="var(--fill-0, #FC4982)" fill-opacity="0.72"/>
<path d="M691.562 455.407C695.574 455.407 699.145 459.487 699.145 464.953C699.145 470.42 695.574 474.501 691.562 474.501C687.549 474.501 683.979 470.421 683.979 464.953C683.979 459.486 687.549 455.407 691.562 455.407Z" stroke="var(--stroke-0, #FC4982)" stroke-opacity="0.72" stroke-width="1.90946"/>
</g>
<g id="Ellipse 212">
<ellipse cx="862.316" cy="384.756" rx="8.53779" ry="10.502" fill="var(--fill-0, #FC4982)" fill-opacity="0.72"/>
<path d="M862.317 375.209C866.329 375.21 869.9 379.289 869.9 384.756C869.9 390.223 866.329 394.304 862.317 394.304C858.304 394.304 854.734 390.223 854.734 384.756C854.734 379.289 858.304 375.209 862.317 375.209Z" stroke="var(--stroke-0, #FC4982)" stroke-opacity="0.72" stroke-width="1.90946"/>
</g>
<g id="Ellipse 201">
<ellipse cx="1033.07" cy="400.032" rx="8.53779" ry="10.502" fill="var(--fill-0, #FC4982)" fill-opacity="0.7"/>
<path d="M1033.07 390.485C1037.09 390.485 1040.66 394.565 1040.66 400.032C1040.66 405.499 1037.09 409.58 1033.07 409.58C1029.06 409.58 1025.49 405.499 1025.49 400.032C1025.49 394.565 1029.06 390.485 1033.07 390.485Z" stroke="var(--stroke-0, #FC4982)" stroke-opacity="0.72" stroke-width="1.90946"/>
</g>
</g>
</svg>
