<svg preserveAspectRatio="none" width="100%" height="100%" overflow="visible" style="display: block;" viewBox="0 0 1052.11 349.431" fill="none" xmlns="http://www.w3.org/2000/svg">
<g id="Group 1">
<path id="Ellipse 202" d="M12.4114 323.877C17.4889 323.877 21.9591 329.165 21.9593 336.176C21.9593 343.188 17.489 348.476 12.4114 348.476C7.33384 348.476 2.86454 343.188 2.86454 336.176C2.8647 329.165 7.33393 323.878 12.4114 323.877Z" fill="var(--fill-0, #7E69FF)" stroke="var(--stroke-0, #7E69FF)" stroke-width="1.90946"/>
<path id="Ellipse 203" d="M182.354 168.441C187.431 168.441 191.901 173.728 191.901 180.74C191.901 187.752 187.431 193.04 182.354 193.04C177.276 193.04 172.807 187.752 172.807 180.74C172.807 173.728 177.276 168.441 182.354 168.441Z" fill="var(--fill-0, #7E69FF)" stroke="var(--stroke-0, #7E69FF)" stroke-width="1.90946"/>
<path id="Ellipse 204" d="M354.205 247.967C359.282 247.967 363.753 253.254 363.753 260.266C363.753 267.278 359.283 272.566 354.205 272.566C349.127 272.566 344.658 267.278 344.658 260.266C344.658 253.254 349.127 247.967 354.205 247.967Z" fill="var(--fill-0, #7E69FF)" stroke="var(--stroke-0, #7E69FF)" stroke-width="1.90946"/>
<path id="Ellipse 205" d="M526.056 187.72C531.134 187.72 535.604 193.007 535.604 200.019C535.604 207.031 531.134 212.319 526.056 212.319C520.979 212.319 516.509 207.031 516.509 200.019C516.51 193.007 520.979 187.72 526.056 187.72Z" fill="var(--fill-0, #7E69FF)" stroke="var(--stroke-0, #7E69FF)" stroke-width="1.90946"/>
<path id="Ellipse 206" d="M697.908 73.2517C702.985 73.2517 707.455 78.5387 707.455 85.5505C707.455 92.5625 702.985 97.8503 697.908 97.8503C692.83 97.8502 688.361 92.5624 688.361 85.5505C688.361 78.5387 692.83 73.2517 697.908 73.2517Z" fill="var(--fill-0, #7E69FF)" stroke="var(--stroke-0, #7E69FF)" stroke-width="1.90946"/>
<path id="Ellipse 207" d="M869.759 194.95C874.836 194.95 879.307 200.237 879.307 207.249C879.307 214.261 874.837 219.548 869.759 219.548C864.681 219.548 860.212 214.261 860.212 207.249C860.212 200.237 864.681 194.95 869.759 194.95Z" fill="var(--fill-0, #7E69FF)" stroke="var(--stroke-0, #7E69FF)" stroke-width="1.90946"/>
<path id="Ellipse 208" d="M1041.61 0.955078C1046.69 0.955078 1051.16 6.2421 1051.16 13.2539C1051.16 20.2659 1046.69 25.5537 1041.61 25.5537C1036.53 25.5537 1032.06 20.2659 1032.06 13.2539C1032.06 6.24213 1036.53 0.955129 1041.61 0.955078Z" fill="var(--fill-0, #7E69FF)" stroke="var(--stroke-0, #7E69FF)" stroke-width="1.90946"/>
<path id="Vector 193" d="M12.4115 336.177L182.353 181.343L354.205 260.868L526.056 200.622L697.907 87.3577L869.759 208.454L1042.09 13.8566" stroke="var(--stroke-0, #7E69FF)" stroke-width="9.5473"/>
<path id="Ellipse 195" d="M10.502 321.467C15.5795 321.467 20.0496 326.754 20.0498 333.766C20.0498 340.778 15.5796 346.066 10.502 346.066C5.42438 346.066 0.955078 340.778 0.955078 333.766C0.955238 326.754 5.42447 321.467 10.502 321.467Z" fill="var(--fill-0, #7E69FF)" stroke="var(--stroke-0, #7E69FF)" stroke-width="1.90946"/>
</g>
</svg>
