<svg preserveAspectRatio="none" width="100%" height="100%" overflow="visible" style="display: block;" viewBox="0 0 1052.11 543.241" fill="none" xmlns="http://www.w3.org/2000/svg">
<g id="Group 2">
<path id="Vector 192" d="M10.9794 533.217L181.876 10.9794L354.205 164.214L525.579 255.868L697.907 307.9L869.759 377.118L1041.61 153.711" stroke="var(--stroke-0, #FBE38E)" stroke-opacity="0.7" stroke-width="9.5473"/>
<circle id="Ellipse 209" cx="10.502" cy="532.739" r="9.5473" fill="var(--fill-0, #FBE38E)" fill-opacity="0.7" stroke="var(--stroke-0, #FBE38E)" stroke-width="1.90946"/>
<path id="Ellipse 196" d="M182.353 0.955078C187.626 0.955078 191.901 5.22916 191.901 10.502C191.901 15.7748 187.626 20.0498 182.353 20.0498C177.081 20.0498 172.806 15.7747 172.806 10.502C172.806 5.22919 177.081 0.955126 182.353 0.955078Z" fill="var(--fill-0, #FBE38E)" fill-opacity="0.7" stroke="var(--stroke-0, #FBE38E)" stroke-width="1.90946"/>
<circle id="Ellipse 197" cx="354.205" cy="164.214" r="9.5473" fill="var(--fill-0, #FBE38E)" fill-opacity="0.7" stroke="var(--stroke-0, #FBE38E)" stroke-width="1.90946"/>
<circle id="Ellipse 198" cx="526.056" cy="254.913" r="9.5473" fill="var(--fill-0, #FBE38E)" fill-opacity="0.7" stroke="var(--stroke-0, #FBE38E)" stroke-width="1.90946"/>
<circle id="Ellipse 199" cx="697.907" cy="307.423" r="9.5473" fill="var(--fill-0, #FBE38E)" fill-opacity="0.7" stroke="var(--stroke-0, #FBE38E)" stroke-width="1.90946"/>
<circle id="Ellipse 200" cx="869.759" cy="376.164" r="9.5473" fill="var(--fill-0, #FBE38E)" fill-opacity="0.7" stroke="var(--stroke-0, #FBE38E)" stroke-width="1.90946"/>
<circle id="Ellipse 201" cx="1041.61" cy="153.711" r="9.5473" fill="var(--fill-0, #FBE38E)" fill-opacity="0.7" stroke="var(--stroke-0, #FBE38E)" stroke-width="1.90946"/>
</g>
</svg>
