<svg width="72" height="42" viewBox="0 0 72 42" fill="none" xmlns="http://www.w3.org/2000/svg">
<path d="M2.80469 17.851C1.25537 17.851 -0.000592709 19.1069 -0.000592709 20.6562C-0.000592709 22.2056 1.25537 23.4615 2.80469 23.4615V20.6562V17.851ZM70.487 22.6399C71.5825 21.5444 71.5825 19.7681 70.487 18.6726L52.6343 0.819923C51.5388 -0.275606 49.7626 -0.275606 48.6671 0.819923C47.5715 1.91545 47.5715 3.69166 48.6671 4.78719L64.5361 20.6562L48.6671 36.5253C47.5715 37.6208 47.5715 39.397 48.6671 40.4926C49.7626 41.5881 51.5388 41.5881 52.6343 40.4926L70.487 22.6399ZM2.80469 20.6562V23.4615H68.5034V20.6562V17.851H2.80469V20.6562Z" fill="white" fill-opacity="0.67"/>
</svg>
