<svg width="182" height="117" viewBox="0 0 182 117" fill="none" xmlns="http://www.w3.org/2000/svg">
<path d="M29.7481 40.5207C40.862 37.1744 52.5344 33.4636 64.3138 30.161C70.5848 28.3008 76.9092 26.6448 83.0734 24.3765C87.8628 22.6863 92.5454 20.5879 97.5923 19.0483C110.382 14.609 123.279 10.5777 136.593 7.30922C143.938 5.38598 150.971 3.10818 158.209 0.776847C160.045 0.296035 162.333 -0.95727 163.586 1.33102C165.043 3.56587 167.822 5.01873 166.69 9.02175C164.232 17.9508 161.259 26.5786 157.825 35.1092C156.781 37.7811 157.563 39.1026 159.428 41.2306C165.335 47.9693 173.111 52.6921 179.674 58.605C181.636 60.2715 182.01 61.6998 181.01 63.7061C180.461 64.9401 179.654 66.0233 179.567 67.3545C179.533 68.8896 178.62 69.5649 177.342 69.6813C174.229 70.2786 171.542 72.5083 168.429 73.1056C166.797 73.533 165.165 73.9604 164.004 75.3546C163.197 76.4379 161.92 76.5543 160.9 76.8215C150.087 79.6529 139.328 82.6884 128.311 85.5733C121.374 87.3897 114.749 89.5607 108.07 91.5277C96.5479 94.981 84.6083 97.6714 72.8823 101.178C64.7752 103.519 56.5174 106.117 48.5171 108.867C46.1224 109.712 43.5674 109.945 41.1193 110.586C36.0189 111.921 31.4966 114.632 26.2893 115.559C24.8078 115.729 23.4332 116.307 21.8982 116.273C19.3432 116.506 17.3808 114.84 16.9436 112.338C15.5058 102.684 12.844 93.3516 9.57005 84.1792C7.30162 78.014 6.25721 71.5284 3.37674 65.5235C1.59891 62.0643 0.637103 58.3915 0.0833591 54.6118C-0.246944 52.5179 0.40886 51.6921 1.78353 51.1141C3.15819 50.5361 4.37264 49.346 5.80073 48.972C13.6067 47.146 20.5577 42.0552 29.7481 40.5207Z" fill="#FAC95D"/>
</svg>
